<svg width="45" height="47" viewBox="0 0 45 47" fill="none" xmlns="http://www.w3.org/2000/svg">
<path fill-rule="evenodd" clip-rule="evenodd" d="M18.3105 0.284644C19.3183 -0.0176802 20.3828 -0.0802208 21.4191 0.102014C22.4554 0.284249 23.4347 0.706213 24.2789 1.33422C25.1231 1.96223 25.8088 2.7789 26.2812 3.71903C26.7537 4.65916 26.9998 5.69672 27 6.74889V39.6529C26.9998 40.7051 26.7537 41.7426 26.2812 42.6828C25.8088 43.6229 25.1231 44.4395 24.2789 45.0676C23.4347 45.6956 22.4554 46.1175 21.4191 46.2998C20.3828 46.482 19.3183 46.4195 18.3105 46.1171L4.8105 42.0671C3.42023 41.6501 2.20142 40.796 1.33488 39.6315C0.468346 38.4671 0.000238026 37.0544 0 35.6029V10.7989C0.000238026 9.34741 0.468346 7.93467 1.33488 6.77023C2.20142 5.6058 3.42023 4.7517 4.8105 4.33464L18.3105 0.284644V0.284644ZM29.25 5.20089C29.25 4.60416 29.4871 4.03186 29.909 3.6099C30.331 3.18795 30.9033 2.95089 31.5 2.95089H38.25C40.0402 2.95089 41.7571 3.66205 43.023 4.92792C44.2888 6.19379 45 7.91068 45 9.70089V11.9509C45 12.5476 44.7629 13.1199 44.341 13.5419C43.919 13.9638 43.3467 14.2009 42.75 14.2009C42.1533 14.2009 41.581 13.9638 41.159 13.5419C40.737 13.1199 40.5 12.5476 40.5 11.9509V9.70089C40.5 9.10416 40.2629 8.53186 39.841 8.1099C39.419 7.68795 38.8467 7.45089 38.25 7.45089H31.5C30.9033 7.45089 30.331 7.21384 29.909 6.79188C29.4871 6.36993 29.25 5.79763 29.25 5.20089ZM42.75 32.2009C43.3467 32.2009 43.919 32.4379 44.341 32.8599C44.7629 33.2819 45 33.8542 45 34.4509V36.7009C45 38.4911 44.2888 40.208 43.023 41.4739C41.7571 42.7397 40.0402 43.4509 38.25 43.4509H31.5C30.9033 43.4509 30.331 43.2138 29.909 42.7919C29.4871 42.3699 29.25 41.7976 29.25 41.2009C29.25 40.6042 29.4871 40.0319 29.909 39.6099C30.331 39.1879 30.9033 38.9509 31.5 38.9509H38.25C38.8467 38.9509 39.419 38.7138 39.841 38.2919C40.2629 37.8699 40.5 37.2976 40.5 36.7009V34.4509C40.5 33.8542 40.737 33.2819 41.159 32.8599C41.581 32.4379 42.1533 32.2009 42.75 32.2009ZM15.75 20.9509C15.1533 20.9509 14.581 21.1879 14.159 21.6099C13.7371 22.0319 13.5 22.6042 13.5 23.2009C13.5 23.7976 13.7371 24.3699 14.159 24.7919C14.581 25.2138 15.1533 25.4509 15.75 25.4509H15.7522C16.349 25.4509 16.9213 25.2138 17.3432 24.7919C17.7652 24.3699 18.0022 23.7976 18.0022 23.2009C18.0022 22.6042 17.7652 22.0319 17.3432 21.6099C16.9213 21.1879 16.349 20.9509 15.7522 20.9509H15.75Z" fill="white"/>
<path d="M42.75 23.2009L38.25 27.7009M31.5 23.2009H42.75H31.5ZM42.75 23.2009L38.25 18.7009L42.75 23.2009Z" stroke="white" stroke-width="4.16667" stroke-linecap="round" stroke-linejoin="round"/>
</svg>
