<svg width="38" height="38" viewBox="0 0 43 45" fill="none" xmlns="http://www.w3.org/2000/svg">
<path d="M25.4456 44.1667H17.4072C16.9036 44.1668 16.415 43.9947 16.0226 43.679C15.6302 43.3633 15.3575 42.9229 15.2497 42.4309L14.3509 38.2704C13.1519 37.7451 12.015 37.0881 10.9611 36.3116L6.9044 37.6035C6.42423 37.7566 5.90612 37.7409 5.43612 37.5589C4.96613 37.3769 4.57251 37.0397 4.32065 36.6031L0.292651 29.6447C0.04343 29.2077 -0.0501213 28.6991 0.0273026 28.2021C0.104726 27.705 0.348541 27.249 0.718859 26.9085L3.86573 24.0377C3.72263 22.7372 3.72263 21.425 3.86573 20.1245L0.718859 17.2603C0.348017 16.9197 0.10387 16.4633 0.0264338 15.9658C-0.0510027 15.4683 0.0428646 14.9592 0.292651 14.522L4.31182 7.55913C4.56368 7.12257 4.95729 6.78531 5.42729 6.60333C5.89729 6.42136 6.41539 6.40563 6.89557 6.55875L10.9523 7.85063C11.4911 7.45313 12.052 7.08213 12.6306 6.74646C13.1893 6.43288 13.7635 6.148 14.3509 5.89404L15.2519 1.73796C15.3592 1.24594 15.6314 0.805352 16.0234 0.489254C16.4154 0.173155 16.9037 0.000529925 17.4072 0H25.4456C25.9491 0.000529925 26.4374 0.173155 26.8294 0.489254C27.2214 0.805352 27.4936 1.24594 27.6009 1.73796L28.5107 5.89625C29.709 6.42161 30.8452 7.07858 31.8983 7.85504L35.9572 6.56317C36.4371 6.41061 36.9547 6.42663 37.4242 6.60857C37.8938 6.79052 38.287 7.12746 38.5388 7.56354L42.5579 14.5264C43.0703 15.4252 42.8936 16.5625 42.1317 17.2625L38.9849 20.1334C39.128 21.4338 39.128 22.7461 38.9849 24.0465L42.1317 26.9174C42.8936 27.6196 43.0703 28.7547 42.5579 29.6535L38.5388 36.6164C38.2869 37.0529 37.8933 37.3902 37.4233 37.5722C36.9533 37.7541 36.4352 37.7699 35.955 37.6168L31.8983 36.3249C30.8452 37.1008 29.709 37.757 28.5107 38.2815L27.6009 42.4309C27.4932 42.9225 27.2208 43.3626 26.8288 43.6783C26.4369 43.9939 25.9488 44.1663 25.4456 44.1667ZM11.7539 31.4224L13.5647 32.7474C13.9733 33.0477 14.3973 33.3238 14.8389 33.5755C15.2541 33.8162 15.6781 34.0326 16.1176 34.2292L18.1779 35.1324L19.1872 39.75H23.6701L24.6793 35.1302L26.7397 34.227C27.6384 33.8295 28.4931 33.337 29.2859 32.7562L31.0967 31.4312L35.6061 32.8666L37.8476 28.9844L34.3518 25.7978L34.5991 23.5629C34.7095 22.5846 34.7095 21.5975 34.5991 20.6214L34.3518 18.3866L37.8498 15.1933L35.6061 11.3089L31.0989 12.7443L29.2859 11.4193C28.4926 10.8356 27.639 10.3388 26.7397 9.9375L24.6793 9.03429L23.6701 4.41667H19.1872L18.1713 9.0365L16.1176 9.9375C15.217 10.3319 14.363 10.8252 13.5714 11.4083L11.7583 12.7333L7.25332 11.2978L5.00744 15.1933L8.50323 18.3755L8.2559 20.6126C8.14548 21.5909 8.14548 22.578 8.2559 23.5541L8.50323 25.7889L5.00744 28.9755L7.2489 32.8578L11.7539 31.4224V31.4224ZM21.4176 30.9167C19.0748 30.9167 16.828 29.986 15.1715 28.3294C13.5149 26.6729 12.5842 24.4261 12.5842 22.0833C12.5842 19.7406 13.5149 17.4938 15.1715 15.8372C16.828 14.1807 19.0748 13.25 21.4176 13.25C23.7603 13.25 26.0071 14.1807 27.6637 15.8372C29.3202 17.4938 30.2509 19.7406 30.2509 22.0833C30.2509 24.4261 29.3202 26.6729 27.6637 28.3294C26.0071 29.986 23.7603 30.9167 21.4176 30.9167ZM21.4176 17.6667C20.5527 17.6675 19.7071 17.9223 18.9857 18.3994C18.2643 18.8765 17.6989 19.5549 17.3595 20.3504C17.0202 21.1459 16.9219 22.0236 17.0768 22.8745C17.2317 23.7254 17.6331 24.5121 18.231 25.1369C18.829 25.7618 19.5973 26.1974 20.4405 26.3896C21.2838 26.5818 22.1649 26.5222 22.9746 26.2181C23.7843 25.9141 24.4869 25.3791 24.9952 24.6794C25.5036 23.9797 25.7953 23.1461 25.8342 22.2821V23.1654V22.0833C25.8342 20.912 25.3689 19.7886 24.5406 18.9603C23.7123 18.132 22.5889 17.6667 21.4176 17.6667Z" fill="white"/>
</svg>
